<svg height="800" width="800" xmlns="http://www.w3.org/2000/svg" viewBox="0 0 512 512"
    xml:space="preserve">
  <path style="fill:#d5d9de" d="M199.601 367.889a8 8 0 0 1 7.989-7.579h.41V124.996l-13.258 13.255C182.656 150.341 176 166.411 176 183.505v9.039c0 23.504-9.156 45.602-25.773 62.227l-65.141 65.137C71.484 333.509 64 351.587 64 370.817v29.492h133.895z"/>
  <path style="fill:#ff4f19" d="M64 400v24c0 13.234 10.766 24 24 24h107.368l2.526-48z"/>
  <path style="fill:#d5d9de" d="m426.914 319.907-65.141-65.137C345.156 238.146 336 216.048 336 192.544v-9.039c0-17.094-6.656-33.164-18.742-45.254L304 124.996V360.31h.41a7.99 7.99 0 0 1 6.732 3.691c.188.292.364.594.513.911.427.91.688 1.915.744 2.977l.152 2.88 1.555 29.541H448v-29.492c0-19.231-7.485-37.309-21.086-50.911"/>
  <path style="fill:#ff4f19" d="M316.631 448H424c13.234 0 24-10.766 24-24v-24H314.105z"/>
  <path style="fill:#e3e6e9" d="M224 360V72h.152a7.99 7.99 0 0 1 3.84-8.449c17.063-9.883 38.953-9.883 56.016 0a7.99 7.99 0 0 1 3.84 8.449H288v288h16V48c0-26.469-21.531-48-48-48s-48 21.531-48 48v312z"/>
  <path style="fill:#d5d9de" d="M288 72h-.152a7.997 7.997 0 0 1-11.856 5.394c-12.188-7.055-27.797-7.055-39.984 0-3.805 2.223-8.711.914-10.93-2.914a8 8 0 0 1-.926-2.48H224v288h24v-40a8 8 0 0 1 16 0v40h24z"/>
  <path style="fill:#888693" d="M248 359.996h-40.41a8 8 0 0 0-7.989 7.579l-1.706 32.421-2.526 48-.421 8H248zm-55.557 143.583 1.656-31.466zm118.699-139.888"/>
  <path style="fill:#5c546a" d="M248 472v-16h-53.053l-.848 16.113-1.656 31.466a7.95 7.95 0 0 0 .725 3.758 8.03 8.03 0 0 0 4.048 3.991 8 8 0 0 0 3.216.672H256v-32a8 8 0 0 1-8-8"/>
  <path style="fill:#888693" d="M264 456v16a8 8 0 0 1-8 8v32h56c4.583 0 8.23-3.843 7.989-8.42L317.485 456z"/>
  <path style="fill:#b6b8be" d="m312.55 370.456-.152-2.88a8 8 0 0 0-.744-2.977 8 8 0 0 0-.513-.911 7.99 7.99 0 0 0-6.732-3.691H264v96h53.053l-.421-8-2.526-48z"/>
  <path style="fill:#5c546a" d="M236.008 77.395c12.188-7.055 27.797-7.055 39.984 0a8 8 0 0 0 10.93-2.914c.46-.792.76-1.63.926-2.48a7.99 7.99 0 0 0-3.84-8.449c-17.063-9.883-38.953-9.883-56.016 0a7.99 7.99 0 0 0-3.84 8.449c.166.851.466 1.689.926 2.48 2.219 3.828 7.125 5.136 10.93 2.914"/>
  <path style="fill:#e5001e" d="M256 312a8 8 0 0 0-8 8v152a8 8 0 0 0 16 0V320a8 8 0 0 0-8-8"/>
</svg>